<svg width="105" height="70" viewBox="0 0 105 70" fill="none" xmlns="http://www.w3.org/2000/svg">
<rect x="5" y="45" width="95" height="20" fill="white"/>
<rect x="20" y="25" width="65" height="20" fill="white"/>
<rect x="25" y="15" width="55" height="10" fill="white"/>
<rect x="30" y="10" width="45" height="5" fill="white"/>
<rect x="35" y="5" width="35" height="5" fill="white"/>
<rect x="25" y="55" width="55" height="10" fill="#D9D9D9"/>
<rect x="25" y="60" width="5" height="5" fill="black"/>
<rect x="75" y="50" width="5" height="5" fill="#D9D9D9"/>
<rect x="25" y="50" width="5" height="5" fill="#D9D9D9"/>
<rect x="30" y="25" width="10" height="10" fill="black"/>
<rect x="70" y="35" width="10" height="10" fill="#F2C5FE"/>
<rect x="25" y="35" width="10" height="10" fill="#F2C5FE"/>
<rect x="65" y="25" width="10" height="10" fill="black"/>
<rect y="50" width="5" height="15" fill="black"/>
<rect x="100" y="50" width="5" height="15" fill="black"/>
<rect x="75" y="60" width="5" height="5" fill="black"/>
<rect x="95" y="45" width="5" height="10" fill="black"/>
<rect x="5" y="45" width="5" height="10" fill="black"/>
<rect x="90" y="40" width="5" height="10" fill="black"/>
<rect x="85" y="40" width="5" height="5" fill="black"/>
<rect x="30" y="5" width="5" height="5" fill="#525357"/>
<rect x="70" y="5" width="5" height="5" fill="#525357"/>
<rect x="15" y="40" width="5" height="5" fill="black"/>
<rect x="10" y="40" width="5" height="10" fill="black"/>
<rect x="75" y="5" width="5" height="10" fill="#39383D"/>
<rect x="25" y="5" width="5" height="10" fill="#39383D"/>
<rect x="20" y="10" width="5" height="15" fill="#39383D"/>
<rect x="80" y="10" width="5" height="15" fill="#39383D"/>
<rect x="15" y="20" width="5" height="20" fill="#39383D"/>
<rect x="85" y="20" width="5" height="20" fill="#39383D"/>
<rect y="65" width="105" height="5" fill="black"/>
<rect x="40" y="40" width="25" height="5" fill="black"/>
<rect x="45" y="35" width="15" height="5" fill="black"/>
<rect x="30" width="45" height="5" fill="#525357"/>
</svg>
